<svg width="221" height="118" viewBox="0 0 221 118" fill="none" xmlns="http://www.w3.org/2000/svg">
<rect width="221" height="118" fill="white"/>
<path d="M25.45 46.45C23.83 46.45 22.345 46.045 20.995 45.235C19.675 44.395 18.61 43.3 17.8 41.95C17.02 40.57 16.63 39.055 16.63 37.405V35.335C16.63 35.185 16.705 35.11 16.855 35.11H21.895C22.015 35.11 22.075 35.185 22.075 35.335V37.405C22.075 38.395 22.405 39.25 23.065 39.97C23.725 40.66 24.52 41.005 25.45 41.005C26.38 41.005 27.175 40.645 27.835 39.925C28.495 39.205 28.825 38.365 28.825 37.405C28.825 36.295 28.105 35.335 26.665 34.525C26.185 34.255 25.435 33.835 24.415 33.265C23.395 32.695 22.435 32.155 21.535 31.645C19.885 30.685 18.655 29.485 17.845 28.045C17.065 26.575 16.675 24.925 16.675 23.095C16.675 21.415 17.08 19.915 17.89 18.595C18.7 17.245 19.765 16.18 21.085 15.4C22.435 14.62 23.89 14.23 25.45 14.23C27.04 14.23 28.495 14.635 29.815 15.445C31.165 16.225 32.23 17.29 33.01 18.64C33.82 19.96 34.225 21.445 34.225 23.095V26.785C34.225 26.905 34.165 26.965 34.045 26.965H29.005C28.885 26.965 28.825 26.905 28.825 26.785L28.78 23.095C28.78 22.045 28.45 21.19 27.79 20.53C27.13 19.87 26.35 19.54 25.45 19.54C24.52 19.54 23.725 19.9 23.065 20.62C22.405 21.31 22.075 22.135 22.075 23.095C22.075 24.085 22.285 24.91 22.705 25.57C23.125 26.23 23.89 26.86 25 27.46C25.15 27.55 25.435 27.715 25.855 27.955C26.305 28.165 26.785 28.42 27.295 28.72C27.805 28.99 28.255 29.23 28.645 29.44C29.065 29.65 29.32 29.785 29.41 29.845C30.91 30.685 32.095 31.72 32.965 32.95C33.835 34.15 34.27 35.635 34.27 37.405C34.27 39.115 33.865 40.66 33.055 42.04C32.275 43.39 31.21 44.47 29.86 45.28C28.54 46.06 27.07 46.45 25.45 46.45ZM34.9907 45.775L40.5707 14.86C40.6007 14.74 40.6757 14.68 40.7957 14.68H47.3207C47.4407 14.68 47.5157 14.74 47.5457 14.86L52.9007 45.775C52.9307 45.925 52.8707 46 52.7207 46H47.7257C47.6057 46 47.5307 45.925 47.5007 45.775L47.0057 42.49H40.8857L40.3907 45.775C40.3607 45.925 40.2857 46 40.1657 46H35.1707C35.0507 46 34.9907 45.925 34.9907 45.775ZM41.7857 37.675H46.1057L44.2607 25.03L43.9907 23.365L43.8107 25.03L41.7857 37.675ZM54.2827 45.775L59.8627 14.86C59.8927 14.74 59.9677 14.68 60.0877 14.68H66.6127C66.7327 14.68 66.8077 14.74 66.8377 14.86L72.1927 45.775C72.2227 45.925 72.1627 46 72.0127 46H67.0177C66.8977 46 66.8227 45.925 66.7927 45.775L66.2977 42.49H60.1777L59.6827 45.775C59.6527 45.925 59.5777 46 59.4577 46H54.4627C54.3427 46 54.2827 45.925 54.2827 45.775ZM61.0777 37.675H65.3977L63.5527 25.03L63.2827 23.365L63.1027 25.03L61.0777 37.675ZM81.7879 46.45C80.1679 46.45 78.6829 46.045 77.3329 45.235C76.0129 44.395 74.9479 43.3 74.1379 41.95C73.3579 40.57 72.9679 39.055 72.9679 37.405V35.335C72.9679 35.185 73.0429 35.11 73.1929 35.11H78.2329C78.3529 35.11 78.4129 35.185 78.4129 35.335V37.405C78.4129 38.395 78.7429 39.25 79.4029 39.97C80.0629 40.66 80.8579 41.005 81.7879 41.005C82.7179 41.005 83.5129 40.645 84.1729 39.925C84.8329 39.205 85.1629 38.365 85.1629 37.405C85.1629 36.295 84.4429 35.335 83.0029 34.525C82.5229 34.255 81.7729 33.835 80.7529 33.265C79.7329 32.695 78.7729 32.155 77.8729 31.645C76.2229 30.685 74.9929 29.485 74.1829 28.045C73.4029 26.575 73.0129 24.925 73.0129 23.095C73.0129 21.415 73.4179 19.915 74.2279 18.595C75.0379 17.245 76.1029 16.18 77.4229 15.4C78.7729 14.62 80.2279 14.23 81.7879 14.23C83.3779 14.23 84.8329 14.635 86.1529 15.445C87.5029 16.225 88.5679 17.29 89.3479 18.64C90.1579 19.96 90.5629 21.445 90.5629 23.095V26.785C90.5629 26.905 90.5029 26.965 90.3829 26.965H85.3429C85.2229 26.965 85.1629 26.905 85.1629 26.785L85.1179 23.095C85.1179 22.045 84.7879 21.19 84.1279 20.53C83.4679 19.87 82.6879 19.54 81.7879 19.54C80.8579 19.54 80.0629 19.9 79.4029 20.62C78.7429 21.31 78.4129 22.135 78.4129 23.095C78.4129 24.085 78.6229 24.91 79.0429 25.57C79.4629 26.23 80.2279 26.86 81.3379 27.46C81.4879 27.55 81.7729 27.715 82.1929 27.955C82.6429 28.165 83.1229 28.42 83.6329 28.72C84.1429 28.99 84.5929 29.23 84.9829 29.44C85.4029 29.65 85.6579 29.785 85.7479 29.845C87.2479 30.685 88.4329 31.72 89.3029 32.95C90.1729 34.15 90.6079 35.635 90.6079 37.405C90.6079 39.115 90.2029 40.66 89.3929 42.04C88.6129 43.39 87.5479 44.47 86.1979 45.28C84.8779 46.06 83.4079 46.45 81.7879 46.45ZM26.035 102.45C24.415 102.45 22.945 102.045 21.625 101.235C20.305 100.425 19.24 99.345 18.43 97.995C17.65 96.615 17.26 95.085 17.26 93.405V79.14C17.26 77.52 17.65 76.035 18.43 74.685C19.24 73.305 20.305 72.21 21.625 71.4C22.975 70.59 24.445 70.185 26.035 70.185C27.685 70.185 29.17 70.59 30.49 71.4C31.84 72.18 32.905 73.245 33.685 74.595C34.465 75.945 34.855 77.46 34.855 79.14V81.21C34.855 81.33 34.78 81.39 34.63 81.39H29.59C29.47 81.39 29.41 81.33 29.41 81.21V79.5C29.41 78.36 29.08 77.415 28.42 76.665C27.79 75.915 26.995 75.54 26.035 75.54C25.165 75.54 24.385 75.9 23.695 76.62C23.035 77.34 22.705 78.18 22.705 79.14V93.405C22.705 94.395 23.035 95.25 23.695 95.97C24.355 96.66 25.135 97.005 26.035 97.005C26.995 97.005 27.79 96.66 28.42 95.97C29.08 95.28 29.41 94.425 29.41 93.405V91.2H26.26C26.11 91.2 26.035 91.125 26.035 90.975V85.935C26.035 85.785 26.11 85.71 26.26 85.71H34.675C34.795 85.71 34.855 85.785 34.855 85.935V93.405C34.855 95.085 34.45 96.615 33.64 97.995C32.86 99.345 31.81 100.425 30.49 101.235C29.17 102.045 27.685 102.45 26.035 102.45ZM38.2388 102C38.1188 102 38.0588 101.925 38.0588 101.775L38.1038 70.86C38.1038 70.74 38.1638 70.68 38.2838 70.68H52.7288C52.8488 70.68 52.9088 70.755 52.9088 70.905V75.945C52.9088 76.065 52.8488 76.125 52.7288 76.125H43.5038V83.145H52.7288C52.8488 83.145 52.9088 83.205 52.9088 83.325L52.9538 88.41C52.9538 88.53 52.8938 88.59 52.7738 88.59H43.5038V96.465H52.7738C52.8938 96.465 52.9538 96.54 52.9538 96.69V101.82C52.9538 101.94 52.8938 102 52.7738 102H38.2388ZM57.3603 102C57.1203 102 57.0003 101.895 57.0003 101.685L56.9553 71.04C56.9553 70.8 57.0753 70.68 57.3153 70.68H61.3653L68.9703 88.41L68.7453 71.04C68.7453 70.8 68.8803 70.68 69.1503 70.68H73.6053C73.7853 70.68 73.8753 70.8 73.8753 71.04L73.9203 101.73C73.9203 101.91 73.8453 102 73.6953 102H69.7353L61.9503 85.44L62.2653 101.64C62.2653 101.88 62.1303 102 61.8603 102H57.3603ZM78.0093 102C77.8893 102 77.8293 101.925 77.8293 101.775L77.8743 70.86C77.8743 70.74 77.9343 70.68 78.0543 70.68H92.4993C92.6193 70.68 92.6793 70.755 92.6793 70.905V75.945C92.6793 76.065 92.6193 76.125 92.4993 76.125H83.2743V83.145H92.4993C92.6193 83.145 92.6793 83.205 92.6793 83.325L92.7243 88.41C92.7243 88.53 92.6643 88.59 92.5443 88.59H83.2743V96.465H92.5443C92.6643 96.465 92.7243 96.54 92.7243 96.69V101.82C92.7243 101.94 92.6643 102 92.5443 102H78.0093ZM96.9058 102C96.7858 102 96.7258 101.925 96.7258 101.775L96.8158 70.86C96.8158 70.74 96.8758 70.68 96.9958 70.68H106.086C107.706 70.68 109.191 71.085 110.541 71.895C111.921 72.675 113.016 73.74 113.826 75.09C114.636 76.41 115.041 77.91 115.041 79.59C115.041 80.7 114.876 81.705 114.546 82.605C114.216 83.475 113.826 84.225 113.376 84.855C112.926 85.455 112.521 85.905 112.161 86.205C113.781 88.005 114.591 90.12 114.591 92.55L114.636 101.775C114.636 101.925 114.561 102 114.411 102H109.326C109.206 102 109.146 101.955 109.146 101.865V92.55C109.146 91.47 108.756 90.54 107.976 89.76C107.226 88.95 106.296 88.545 105.186 88.545H102.216L102.171 101.775C102.171 101.925 102.111 102 101.991 102H96.9058ZM102.216 83.145H106.086C107.016 83.145 107.841 82.8 108.561 82.11C109.281 81.42 109.641 80.58 109.641 79.59C109.641 78.63 109.281 77.805 108.561 77.115C107.871 76.425 107.046 76.08 106.086 76.08H102.216V83.145ZM116.905 101.775L122.485 70.86C122.515 70.74 122.59 70.68 122.71 70.68H129.235C129.355 70.68 129.43 70.74 129.46 70.86L134.815 101.775C134.845 101.925 134.785 102 134.635 102H129.64C129.52 102 129.445 101.925 129.415 101.775L128.92 98.49H122.8L122.305 101.775C122.275 101.925 122.2 102 122.08 102H117.085C116.965 102 116.905 101.925 116.905 101.775ZM123.7 93.675H128.02L126.175 81.03L125.905 79.365L125.725 81.03L123.7 93.675ZM137.819 102C137.699 102 137.639 101.925 137.639 101.775L137.684 70.905C137.684 70.755 137.759 70.68 137.909 70.68H142.904C143.054 70.68 143.129 70.755 143.129 70.905L143.084 96.465H152.354C152.504 96.465 152.579 96.54 152.579 96.69V101.775C152.579 101.925 152.504 102 152.354 102H137.819ZM155.75 102C155.6 102 155.525 101.925 155.525 101.775L155.57 70.86C155.57 70.74 155.63 70.68 155.75 70.68H160.79C160.91 70.68 160.97 70.74 160.97 70.86L161.015 101.775C161.015 101.925 160.955 102 160.835 102H155.75ZM172.623 102.45C171.003 102.45 169.518 102.045 168.168 101.235C166.848 100.395 165.783 99.3 164.973 97.95C164.193 96.57 163.803 95.055 163.803 93.405V91.335C163.803 91.185 163.878 91.11 164.028 91.11H169.068C169.188 91.11 169.248 91.185 169.248 91.335V93.405C169.248 94.395 169.578 95.25 170.238 95.97C170.898 96.66 171.693 97.005 172.623 97.005C173.553 97.005 174.348 96.645 175.008 95.925C175.668 95.205 175.998 94.365 175.998 93.405C175.998 92.295 175.278 91.335 173.838 90.525C173.358 90.255 172.608 89.835 171.588 89.265C170.568 88.695 169.608 88.155 168.708 87.645C167.058 86.685 165.828 85.485 165.018 84.045C164.238 82.575 163.848 80.925 163.848 79.095C163.848 77.415 164.253 75.915 165.063 74.595C165.873 73.245 166.938 72.18 168.258 71.4C169.608 70.62 171.063 70.23 172.623 70.23C174.213 70.23 175.668 70.635 176.988 71.445C178.338 72.225 179.403 73.29 180.183 74.64C180.993 75.96 181.398 77.445 181.398 79.095V82.785C181.398 82.905 181.338 82.965 181.218 82.965H176.178C176.058 82.965 175.998 82.905 175.998 82.785L175.953 79.095C175.953 78.045 175.623 77.19 174.963 76.53C174.303 75.87 173.523 75.54 172.623 75.54C171.693 75.54 170.898 75.9 170.238 76.62C169.578 77.31 169.248 78.135 169.248 79.095C169.248 80.085 169.458 80.91 169.878 81.57C170.298 82.23 171.063 82.86 172.173 83.46C172.323 83.55 172.608 83.715 173.028 83.955C173.478 84.165 173.958 84.42 174.468 84.72C174.978 84.99 175.428 85.23 175.818 85.44C176.238 85.65 176.493 85.785 176.583 85.845C178.083 86.685 179.268 87.72 180.138 88.95C181.008 90.15 181.443 91.635 181.443 93.405C181.443 95.115 181.038 96.66 180.228 98.04C179.448 99.39 178.383 100.47 177.033 101.28C175.713 102.06 174.243 102.45 172.623 102.45ZM188.853 102C188.733 102 188.673 101.925 188.673 101.775V76.125H182.823C182.673 76.125 182.598 76.05 182.598 75.9L182.643 70.86C182.643 70.74 182.703 70.68 182.823 70.68H199.923C200.073 70.68 200.148 70.74 200.148 70.86V75.9C200.148 76.05 200.088 76.125 199.968 76.125H194.073L194.118 101.775C194.118 101.925 194.058 102 193.938 102H188.853Z" fill="black"/>
</svg>
